<?xml version="1.0" standalone="no"?>
<!DOCTYPE svg PUBLIC "-//W3C//DTD SVG 20010904//EN"
 "http://www.w3.org/TR/2001/REC-SVG-20010904/DTD/svg10.dtd">
<svg version="1.0" xmlns="http://www.w3.org/2000/svg"
 width="512.000000pt" height="512.000000pt" viewBox="0 0 512.000000 512.000000"
 preserveAspectRatio="xMidYMid meet">
<metadata>
Created by potrace 1.11, written by Peter Selinger 2001-2013
</metadata>
<g transform="translate(0.000000,512.000000) scale(0.100000,-0.100000)"
fill="#000000" stroke="none">
<path d="M0 2560 l0 -2560 2560 0 2560 0 0 2560 0 2560 -2560 0 -2560 0 0
-2560z m2879 1622 c299 -57 538 -180 672 -346 211 -261 246 -681 85 -1010 -77
-157 -192 -281 -353 -382 -73 -46 -225 -113 -255 -114 -30 0 -20 -14 41 -58
32 -24 72 -60 88 -80 38 -48 873 -1278 873 -1287 0 -3 -138 -5 -307 -3 l-308
3 -57 28 c-65 32 -15 -39 -522 737 -153 234 -297 444 -321 467 -24 23 -59 46
-81 52 -21 6 -114 11 -206 11 l-168 0 0 -650 0 -650 -485 0 -485 0 -2 1656 -3
1655 840 -4 c812 -4 844 -4 954 -25z"/>
<path d="M1454 3741 c-2 -2 -4 -253 -4 -558 l0 -553 115 0 115 0 0 554 0 555
-111 3 c-61 2 -113 1 -115 -1z"/>
<path d="M2062 3188 l3 -553 170 -3 c194 -3 392 11 480 34 154 41 295 143 358
261 58 109 82 281 57 414 -37 196 -188 331 -420 379 -81 17 -136 20 -373 20
l-277 0 2 -552z"/>
<path d="M1450 1785 l0 -415 115 0 115 0 0 405 c0 223 0 408 0 413 0 4 -52 8
-115 10 l-115 3 0 -416z"/>
</g>
</svg>
