<svg xmlns="http://www.w3.org/2000/svg" width="461.625" height="148.979"><path d="M128.52 135.869v11.72h-26.817c-2.384 0-4.37-.397-5.959-1.391-1.589-.993-2.781-2.185-3.973-3.973L61.578 96.142c-1.192-1.788-2.384-2.781-3.774-3.576-1.391-.794-3.377-1.192-5.959-1.192h-10.13v36.55c2.384.397 4.569.794 5.959.993 1.391.198 2.384.596 2.979.596.596 0 .994.199 1.192.199 3.377.794 4.966 2.781 4.966 6.158v11.72H0v-11.72c0-3.377 1.589-5.363 4.966-6.158.198 0 .596-.199 1.191-.199.596-.199 1.589-.397 2.98-.596 1.39-.199 3.575-.596 5.959-.993V23.638c-2.384-.397-4.569-.794-5.959-.993-1.391-.199-2.384-.596-2.98-.596-.596 0-.993-.199-1.191-.199C1.589 21.056 0 19.069 0 15.693V3.973H57.407c9.733 0 18.275.993 25.227 2.979 6.953 1.986 12.713 4.966 17.083 8.542 4.37 3.575 7.946 8.144 9.932 13.11 2.185 5.165 3.178 10.528 3.178 16.686 0 4.767-.795 9.336-2.185 13.706-1.391 4.37-3.576 8.144-6.158 11.72-2.583 3.575-5.959 6.555-9.932 9.137-3.973 2.582-8.542 4.767-13.507 6.356 3.377 1.986 6.356 4.767 8.74 8.343l22.645 33.372c2.384.397 4.569.794 6.158.993 1.589.198 2.583.596 3.377.596s1.391.199 1.589.199c3.376.794 4.966 2.78 4.966 6.157zM79.456 65.154c2.384-2.185 4.171-4.966 5.363-7.946 1.192-2.979 1.788-6.356 1.788-9.932 0-7.35-2.383-12.912-7.151-16.884-4.767-3.973-12.117-5.761-22.049-5.761H41.714v47.673h15.295c4.966 0 9.336-.794 13.11-1.986s6.953-2.979 9.337-5.164zM232.007 135.67v11.72h-23.44c-2.384 0-4.172-.199-5.562-.993-1.391-.596-2.384-2.185-2.98-4.37l-2.185-7.151c-2.583 2.384-4.966 4.37-7.548 6.158-2.384 1.788-5.165 3.178-7.747 4.37-2.582 1.192-5.363 1.986-8.343 2.583a50.942 50.942 0 0 1-9.932.993c-4.37 0-8.343-.596-11.918-1.788-3.576-1.192-6.754-2.781-9.336-5.165-2.583-2.384-4.768-5.363-6.158-8.74-1.39-3.376-2.185-7.35-2.185-11.918 0-3.774.993-7.747 2.979-11.521 1.986-3.774 5.363-7.151 10.13-10.131 4.768-2.979 10.925-5.562 18.672-7.548 7.747-1.986 17.679-2.979 29.2-2.979v-5.96c0-6.953-1.589-11.918-4.37-15.295s-6.952-4.966-12.514-4.966c-3.973 0-7.35.397-9.932 1.391-2.582.993-4.966 1.986-6.952 3.178-1.986 1.191-3.774 1.986-5.363 2.979-1.589.993-3.377 1.39-5.363 1.39-1.589 0-3.178-.397-4.37-1.191-1.192-.795-1.986-1.987-2.781-3.178l-4.569-7.747c11.72-10.727 25.823-16.289 42.31-16.289 5.959 0 11.322.993 16.09 2.979 4.568 1.987 8.541 4.768 11.72 8.145 3.178 3.575 5.959 7.747 7.548 12.514 1.59 4.767 2.384 10.13 2.384 15.891v45.091c2.186.397 4.172.795 5.363.993 1.192.199 1.986.397 2.186.397 3.377.795 4.966 2.781 4.966 6.158zm-36.351-31.583c-7.151 0-13.11.397-17.877 1.391-4.768.993-8.74 2.185-11.72 3.575-2.979 1.391-4.966 2.98-6.158 4.768s-1.788 3.973-1.788 6.158c0 4.37 1.192 7.548 3.774 9.336 2.582 1.788 5.76 2.781 9.932 2.781 2.582 0 4.767-.199 6.952-.596 2.185-.397 4.37-1.192 6.158-2.185s3.576-1.986 5.363-3.377a57.577 57.577 0 0 0 5.363-4.767v-17.084zM358.14 135.869v11.72h-39.53V82.833c0-6.158-1.391-11.124-4.37-14.5-2.781-3.377-7.151-5.165-12.912-5.165-4.171 0-8.144.993-11.918 2.979s-7.151 4.37-10.527 7.747v54.03c2.383.397 4.568.794 5.959.993 1.391.198 2.384.596 2.979.596.596.199.993.199 1.191.199 3.377.794 4.966 2.781 4.966 6.158v11.72h-54.625v-11.72c0-3.377 1.589-5.363 4.966-6.158.198 0 .596-.199 1.191-.199.597 0 1.59-.397 2.979-.596 1.391-.199 3.576-.596 5.96-.993V19.666c-2.384-.397-4.569-.795-5.96-.993-1.39-.199-2.383-.596-2.979-.596-.596 0-.993-.199-1.191-.199-3.377-.794-4.966-2.781-4.966-6.158V0h39.53v56.811c3.973-3.774 8.343-6.754 13.109-9.138 4.768-2.383 10.528-3.575 16.885-3.575 5.562 0 10.329.993 14.699 2.781s7.747 4.569 10.727 7.946c2.781 3.376 4.966 7.548 6.555 12.315 1.391 4.767 2.384 9.733 2.384 15.494v45.29c2.384.397 4.37.794 5.761.993 1.391.198 2.384.397 2.979.596s.993.199 1.191.199c3.377.794 4.967 2.78 4.967 6.157zM461.625 135.67v11.72H438.185c-2.383 0-4.171-.199-5.562-.993-1.391-.596-2.384-2.185-2.979-4.37l-2.186-7.151c-2.582 2.384-4.966 4.37-7.548 6.158-2.384 1.788-5.165 3.178-7.747 4.37s-5.363 1.986-8.343 2.583a50.942 50.942 0 0 1-9.932.993c-4.37 0-8.343-.596-11.919-1.788-3.575-1.192-6.753-2.781-9.336-5.165-2.582-2.384-4.767-5.363-6.157-8.74-1.391-3.376-2.186-7.35-2.186-11.918 0-3.774.993-7.747 2.979-11.521 1.986-3.774 5.363-7.151 10.131-10.131s10.925-5.562 18.672-7.548 17.679-2.979 29.2-2.979v-5.96c0-6.953-1.589-11.918-4.37-15.295s-6.952-4.966-12.515-4.966c-3.973 0-7.35.397-9.932 1.391-2.582.993-4.966 1.986-6.952 3.178-1.986 1.191-3.774 1.986-5.363 2.979s-3.377 1.39-5.363 1.39c-1.589 0-3.179-.397-4.37-1.191-1.191-.795-1.986-1.987-2.781-3.178l-4.568-7.747c11.72-10.727 25.823-16.289 42.311-16.289 5.959 0 11.322.993 16.089 2.979 4.569 1.987 8.542 4.768 11.72 8.145 3.179 3.575 5.96 7.747 7.549 12.514 1.589 4.767 2.384 10.13 2.384 15.891v45.091c2.185.397 4.171.795 5.363.993 1.191.199 1.986.397 2.185.397 3.377.795 4.966 2.781 4.966 6.158zm-36.351-31.583c-7.151 0-13.11.397-17.878 1.391-4.767.993-8.739 2.185-11.72 3.575-2.979 1.391-4.966 2.98-6.157 4.768-1.192 1.788-1.788 3.973-1.788 6.158 0 4.37 1.192 7.548 3.774 9.336 2.582 1.788 5.761 2.781 9.932 2.781 2.583 0 4.768-.199 6.952-.596 2.186-.397 4.37-1.192 6.158-2.185s3.575-1.986 5.363-3.377a57.705 57.705 0 0 0 5.363-4.767v-17.084z"/></svg>